<svg width="40" height="40" viewBox="0 0 40 40" fill="none" xmlns="http://www.w3.org/2000/svg">
  <rect x="0.5" y="0.5" width="39" height="39" rx="19.5" fill="#0E1414"/>
  <rect x="0.5" y="0.5" width="39" height="39" rx="19.5" stroke="url(#paint0_linear_180_9003)"/>
  <path d="M26.25 17.5H22.5V13.75C22.4995 13.2529 22.3018 12.7762 21.9503 12.4247C21.5988 12.0732 21.1221 11.8755 20.625 11.875H19.2919C18.9913 11.8763 18.7012 11.9852 18.4742 12.1821C18.2471 12.379 18.0982 12.6508 18.0544 12.9481L17.5262 16.6462L15.2906 20H11.25V28.75H24.375C25.5348 28.7483 26.6467 28.2869 27.4668 27.4668C28.2869 26.6467 28.7483 25.5348 28.75 24.375V20C28.7492 19.3372 28.4855 18.7018 28.0169 18.2331C27.5482 17.7645 26.9128 17.5008 26.25 17.5ZM15 27.5H12.5V21.25H15V27.5ZM27.5 24.375C27.499 25.2035 27.1694 25.9978 26.5836 26.5836C25.9978 27.1694 25.2035 27.499 24.375 27.5H16.25V20.8144L18.7238 17.1038L19.2925 13.125H20.625C20.7908 13.125 20.9497 13.1908 21.0669 13.3081C21.1842 13.4253 21.25 13.5842 21.25 13.75V18.75H26.25C26.5814 18.7505 26.899 18.8824 27.1333 19.1167C27.3676 19.351 27.4995 19.6686 27.5 20V24.375Z" fill="#F5F5F6"/>
  <defs>
    <linearGradient id="paint0_linear_180_9003" x1="20" y1="0" x2="20" y2="40" gradientUnits="userSpaceOnUse">
      <stop stop-color="#414B4E"/>
      <stop offset="1" stop-color="#414B4E" stop-opacity="0"/>
    </linearGradient>
  </defs>
</svg>
