<svg width="40" height="40" viewBox="0 0 40 40" fill="none" xmlns="http://www.w3.org/2000/svg">
  <rect x="0.5" y="0.5" width="39" height="39" rx="19.5" fill="#0E1414"/>
  <rect x="0.5" y="0.5" width="39" height="39" rx="19.5" stroke="url(#paint0_linear_180_9097)"/>
  <path d="M24.375 11.25L25.3706 13.125L27.5 13.3837L25.9375 14.7919L26.25 16.875L24.375 15.7031L22.5 16.875L22.8125 14.7919L21.25 13.3837L23.4375 13.125L24.375 11.25Z" fill="#F5F5F6"/>
  <path d="M24.2001 18.2808L22.9888 17.9695C22.7717 18.8059 22.3116 19.5592 21.6665 20.1342C21.0215 20.7092 20.2205 21.0802 19.3647 21.2001C18.509 21.3201 17.6369 21.1838 16.8586 20.8083C16.0803 20.4329 15.4307 19.8352 14.992 19.0907C14.5532 18.3463 14.3449 17.4885 14.3935 16.6258C14.442 15.763 14.7451 14.934 15.2646 14.2434C15.7841 13.5529 16.4966 13.0318 17.312 12.746C18.1275 12.4602 19.0094 12.4225 19.8463 12.6377L20.1582 11.427C18.9382 11.1097 17.6469 11.2118 16.492 11.7171C15.337 12.2223 14.3855 13.1012 13.7904 14.2125C13.1954 15.3238 12.9913 16.6029 13.211 17.8443C13.4308 19.0856 14.0615 20.2169 15.002 21.0564V28.7502L18.752 26.2502L22.502 28.7502V21.0677C23.3321 20.3279 23.9233 19.3577 24.2001 18.2808ZM21.252 26.4145L18.752 24.7477L16.252 26.4145V21.9064C17.0276 22.2963 17.8835 22.4996 18.7515 22.5003C19.6196 22.5009 20.4758 22.2989 21.252 21.9102V26.4145Z" fill="#F5F5F6"/>
  <defs>
    <linearGradient id="paint0_linear_180_9097" x1="20" y1="0" x2="20" y2="40" gradientUnits="userSpaceOnUse">
      <stop stop-color="#414B4E"/>
      <stop offset="1" stop-color="#414B4E" stop-opacity="0"/>
    </linearGradient>
  </defs>
</svg>
