<svg width="156" height="42" viewBox="0 0 156 42" fill="none" xmlns="http://www.w3.org/2000/svg">
    <mask id="mask0_813_35645" style="mask-type:alpha" maskUnits="userSpaceOnUse" x="0" y="0" width="28" height="28">
        <path fill-rule="evenodd" clip-rule="evenodd" d="M27.9251 13.9378C27.6788 9.94 22.8748 9.15963 20.5674 6.18593C18.3144 3.68148 17.4588 0.160741 13.9407 0C10.4225 0.163333 9.56958 3.68148 7.31403 6.18593C5.69884 8.2237 2.66032 9.46556 1.20069 11.0833C-0.398935 12.6778 -0.401528 15.2756 1.20069 16.87C2.65773 18.4878 5.69625 19.7296 7.31403 21.7674C9.56699 24.2693 10.4225 27.79 13.9407 27.9533C17.4588 27.79 18.3118 24.2719 20.5674 21.7674C22.8748 18.7937 27.6788 18.0133 27.9251 14.0156V13.9404V13.9378ZM19.3929 8.43889C17.7855 7.13741 15.4574 7.41222 13.5025 7.35C11.4959 7.39926 9.34921 7.33704 8.13329 8.86148C7.26995 9.92963 7.27773 11.6459 7.25699 13.2663C7.26477 14.4511 7.26218 15.667 7.45144 16.8441C7.73662 19.3226 9.74329 20.6111 12.1207 20.5541C15.4651 20.6319 19.9607 21.1219 20.5362 16.8363C20.7696 14.3915 21.2829 10.2122 19.4551 8.49333L19.3929 8.43889Z" fill="#F7F8F9"/>
    </mask>
    <g mask="url(#mask0_813_35645)">
        <g clip-path="url(#clip0_813_35645)">
            <path d="M28 0H0V28H28V0Z" fill="#F7F8F9"/>
            <path d="M28 0H0V28H28V0Z" fill="#F7F8F9"/>
            <g filter="url(#filter0_f_813_35645)">
                <path d="M32.3378 15.96L1.25781 15.96L1.25781 32.2H32.3378V15.96Z" fill="#F7F8F9"/>
                <ellipse cx="7.4223" cy="0.0311992" rx="15.6709" ry="10.7619" transform="rotate(-15 7.4223 0.0311992)" fill="#F7F8F9"/>
            </g>
        </g>
    </g>
    <path fill-rule="evenodd" clip-rule="evenodd" d="M42.8582 4.6665H39.0289L32.6719 22.9184H36.4234L37.6237 19.0372H44.2089L45.4352 22.9184H49.2904L42.8582 4.6665ZM43.3171 16.2035H38.4922L40.1256 10.9458C40.4315 9.97613 40.8904 8.13799 40.8904 8.13799H40.9422C40.9422 8.13799 41.3778 9.97613 41.6837 10.9458L43.3171 16.2035ZM55.4654 9.4654C51.6361 9.4654 49.0072 12.4754 49.0072 16.3565H49.0098C49.0098 20.261 51.4598 23.2995 55.7998 23.2995C59.1676 23.2995 61.2365 21.3343 61.7213 19.0113H58.3017C57.918 20.0069 57.1272 20.6187 55.7739 20.6187C53.8087 20.6187 52.6835 19.3691 52.4295 17.3521H61.9235C61.9235 12.6802 59.6783 9.4654 55.4654 9.4654ZM58.2991 14.9539H52.4787C52.7872 13.2428 53.6791 12.1461 55.5172 12.1461C57.0987 12.1461 58.198 13.2947 58.2991 14.9539ZM66.466 11.9154H66.5438C67.3345 10.435 68.229 9.67022 69.7612 9.67022C70.1449 9.67022 70.373 9.69615 70.5778 9.77133V12.8099H70.5027C68.2315 12.5791 66.5982 13.7795 66.5982 16.5354V22.9158H63.1267V9.82059H66.4712V11.9128L66.466 11.9154ZM77.5539 9.4654C73.4939 9.4654 70.7121 12.478 70.7121 16.3824C70.7121 20.2869 73.4939 23.2995 77.5539 23.2995C81.6139 23.2995 84.3958 20.2869 84.3958 16.3824C84.3958 12.478 81.6139 9.4654 77.5539 9.4654ZM77.5539 12.0943C79.6721 12.0943 80.8725 13.8287 80.8725 16.3824C80.8725 18.9335 79.698 20.6447 77.5539 20.6447C75.4099 20.6447 74.2354 18.9361 74.2354 16.3824C74.2354 13.8287 75.4358 12.0943 77.5539 12.0943ZM90.0619 4.6665H103.486V7.78021H93.7615V11.8635H102.286V14.9021H93.7615V19.828H103.564V22.9158H90.0619V4.6665ZM109.801 9.46539C106.534 9.46539 104.211 12.2991 104.211 16.3824C104.211 20.6187 106.456 23.2995 109.749 23.2995C111.585 23.2995 112.889 22.4569 113.653 21.2072H113.705V22.9184H117.05V4.6665H113.578V11.4047H113.503C112.788 10.308 111.639 9.46539 109.801 9.46539ZM110.618 12.2706C112.839 12.2706 113.656 13.9558 113.656 16.4576C113.656 18.8558 112.583 20.388 110.516 20.388C108.73 20.388 107.735 18.8039 107.735 16.3798C107.735 13.9558 108.704 12.2706 110.618 12.2706ZM118.892 4.6665H122.363V7.78021H118.892V4.6665ZM118.892 9.82317H122.363V22.9184H118.892V9.82317ZM124.97 9.82314H123.158L123.155 9.82573V12.1228H124.968V19.8046C124.968 22.2805 126.832 22.9443 128.517 22.9443C129.896 22.9443 130.687 22.8924 130.687 22.8924V20.3387C130.687 20.3387 130.098 20.3646 129.665 20.3646C128.901 20.3646 128.364 20.0328 128.364 19.0631V12.1202H130.609V9.82314H128.364V5.73981H124.97V9.82314Z" fill="#DDDDF0"/>
    <path d="M34.4148 38H33.3068L36.5114 29.2727H37.6023L40.8068 38H39.6989L37.0909 30.6534H37.0227L34.4148 38ZM34.8239 34.5909H39.2898V35.5284H34.8239V34.5909ZM45.5412 38V29.2727H48.4901C49.1747 29.2727 49.7344 29.3963 50.169 29.6435C50.6065 29.8878 50.9304 30.2188 51.1406 30.6364C51.3509 31.054 51.456 31.5199 51.456 32.0341C51.456 32.5483 51.3509 33.0156 51.1406 33.4361C50.9332 33.8565 50.6122 34.1918 50.1776 34.4418C49.7429 34.6889 49.1861 34.8125 48.5071 34.8125H46.3935V33.875H48.473C48.9418 33.875 49.3182 33.794 49.6023 33.6321C49.8864 33.4702 50.0923 33.2514 50.2202 32.9759C50.3509 32.6974 50.4162 32.3835 50.4162 32.0341C50.4162 31.6847 50.3509 31.3722 50.2202 31.0966C50.0923 30.821 49.8849 30.6051 49.598 30.4489C49.3111 30.2898 48.9304 30.2102 48.456 30.2102H46.598V38H45.5412ZM54.9482 38.1534C54.5334 38.1534 54.157 38.0753 53.8189 37.919C53.4808 37.7599 53.2124 37.5312 53.0135 37.233C52.8146 36.9318 52.7152 36.5682 52.7152 36.142C52.7152 35.767 52.7891 35.4631 52.9368 35.2301C53.0845 34.9943 53.282 34.8097 53.5291 34.6761C53.7763 34.5426 54.049 34.4432 54.3473 34.3778C54.6484 34.3097 54.951 34.2557 55.255 34.2159C55.6527 34.1648 55.9751 34.1264 56.2223 34.1009C56.4723 34.0724 56.6541 34.0256 56.7678 33.9602C56.8842 33.8949 56.9425 33.7812 56.9425 33.6193V33.5852C56.9425 33.1648 56.8274 32.8381 56.5973 32.6051C56.37 32.3722 56.0249 32.2557 55.5618 32.2557C55.0817 32.2557 54.7053 32.3608 54.4325 32.571C54.1598 32.7812 53.968 33.0057 53.8572 33.2443L52.9027 32.9034C53.0732 32.5057 53.3004 32.196 53.5845 31.9744C53.8714 31.75 54.1839 31.5937 54.522 31.5057C54.8629 31.4148 55.1982 31.3693 55.5277 31.3693C55.7379 31.3693 55.9794 31.3949 56.2521 31.446C56.5277 31.4943 56.7933 31.5952 57.049 31.7486C57.3075 31.902 57.522 32.1335 57.6925 32.4432C57.8629 32.7528 57.9482 33.1676 57.9482 33.6875V38H56.9425V37.1136H56.8913C56.8232 37.2557 56.7095 37.4077 56.5504 37.5696C56.3913 37.7315 56.1797 37.8693 55.9155 37.983C55.6513 38.0966 55.3288 38.1534 54.9482 38.1534ZM55.1016 37.25C55.4993 37.25 55.8345 37.1719 56.1072 37.0156C56.3828 36.8594 56.5902 36.6577 56.7294 36.4105C56.8714 36.1634 56.9425 35.9034 56.9425 35.6307V34.7102C56.8999 34.7614 56.8061 34.8082 56.6612 34.8509C56.5192 34.8906 56.3544 34.9261 56.1669 34.9574C55.9822 34.9858 55.8018 35.0114 55.6257 35.0341C55.4524 35.054 55.3118 35.071 55.2038 35.0852C54.9425 35.1193 54.6982 35.1747 54.4709 35.2514C54.2464 35.3253 54.0646 35.4375 53.9254 35.5881C53.7891 35.7358 53.7209 35.9375 53.7209 36.1932C53.7209 36.5426 53.8501 36.8068 54.1087 36.9858C54.37 37.1619 54.701 37.25 55.1016 37.25ZM62.2553 38.1364C61.7099 38.1364 61.2283 37.9986 60.8107 37.723C60.3931 37.4446 60.0664 37.0526 59.8306 36.5469C59.5948 36.0384 59.4769 35.4375 59.4769 34.7443C59.4769 34.0568 59.5948 33.4602 59.8306 32.9545C60.0664 32.4489 60.3945 32.0582 60.815 31.7827C61.2354 31.5071 61.7212 31.3693 62.2724 31.3693C62.6985 31.3693 63.0352 31.4403 63.2823 31.5824C63.5323 31.7216 63.7227 31.8807 63.8533 32.0597C63.9869 32.2358 64.0906 32.3807 64.1644 32.4943H64.2496V29.2727H65.2553V38H64.2837V36.9943H64.1644C64.0906 37.1136 63.9854 37.2642 63.8491 37.446C63.7127 37.625 63.5181 37.7855 63.2653 37.9276C63.0124 38.0668 62.6758 38.1364 62.2553 38.1364ZM62.3917 37.233C62.7951 37.233 63.136 37.1278 63.4144 36.9176C63.6928 36.7045 63.9045 36.4105 64.0494 36.0355C64.1942 35.6577 64.2667 35.2216 64.2667 34.7273C64.2667 34.2386 64.1957 33.8111 64.0536 33.4446C63.9116 33.0753 63.7013 32.7884 63.4229 32.5838C63.1445 32.3764 62.8008 32.2727 62.3917 32.2727C61.9656 32.2727 61.6104 32.3821 61.3263 32.6009C61.0451 32.8168 60.8335 33.1108 60.6914 33.483C60.5522 33.8523 60.4826 34.267 60.4826 34.7273C60.4826 35.1932 60.5536 35.6165 60.6957 35.9972C60.8406 36.375 61.0536 36.6761 61.3349 36.9006C61.619 37.1222 61.9712 37.233 62.3917 37.233ZM69.7085 38.1364C69.163 38.1364 68.6815 37.9986 68.2638 37.723C67.8462 37.4446 67.5195 37.0526 67.2837 36.5469C67.0479 36.0384 66.93 35.4375 66.93 34.7443C66.93 34.0568 67.0479 33.4602 67.2837 32.9545C67.5195 32.4489 67.8477 32.0582 68.2681 31.7827C68.6886 31.5071 69.1744 31.3693 69.7255 31.3693C70.1516 31.3693 70.4883 31.4403 70.7354 31.5824C70.9854 31.7216 71.1758 31.8807 71.3065 32.0597C71.44 32.2358 71.5437 32.3807 71.6175 32.4943H71.7028V29.2727H72.7085V38H71.7369V36.9943H71.6175C71.5437 37.1136 71.4386 37.2642 71.3022 37.446C71.1658 37.625 70.9712 37.7855 70.7184 37.9276C70.4656 38.0668 70.1289 38.1364 69.7085 38.1364ZM69.8448 37.233C70.2482 37.233 70.5891 37.1278 70.8675 36.9176C71.146 36.7045 71.3576 36.4105 71.5025 36.0355C71.6474 35.6577 71.7198 35.2216 71.7198 34.7273C71.7198 34.2386 71.6488 33.8111 71.5067 33.4446C71.3647 33.0753 71.1545 32.7884 70.8761 32.5838C70.5977 32.3764 70.2539 32.2727 69.8448 32.2727C69.4187 32.2727 69.0636 32.3821 68.7795 32.6009C68.4982 32.8168 68.2866 33.1108 68.1445 33.483C68.0053 33.8523 67.9357 34.267 67.9357 34.7273C67.9357 35.1932 68.0067 35.6165 68.1488 35.9972C68.2937 36.375 68.5067 36.6761 68.788 36.9006C69.0721 37.1222 69.4244 37.233 69.8448 37.233ZM75.6957 29.2727V38H74.69V29.2727H75.6957ZM80.282 38.1364C79.6513 38.1364 79.1072 37.9972 78.6499 37.7188C78.1953 37.4375 77.8445 37.0455 77.5973 36.5426C77.353 36.0369 77.2308 35.4489 77.2308 34.7784C77.2308 34.108 77.353 33.517 77.5973 33.0057C77.8445 32.4915 78.1882 32.0909 78.6286 31.804C79.0717 31.5142 79.5888 31.3693 80.1797 31.3693C80.5206 31.3693 80.8572 31.4261 81.1896 31.5398C81.522 31.6534 81.8246 31.8381 82.0973 32.0938C82.37 32.3466 82.5874 32.6818 82.7493 33.0994C82.9112 33.517 82.9922 34.0312 82.9922 34.642V35.0682H77.9467V34.1989H81.9695C81.9695 33.8295 81.8956 33.5 81.7479 33.2102C81.603 32.9205 81.3956 32.6918 81.1257 32.5241C80.8587 32.3565 80.5433 32.2727 80.1797 32.2727C79.7791 32.2727 79.4325 32.3722 79.1399 32.571C78.8501 32.767 78.6271 33.0227 78.4709 33.3381C78.3146 33.6534 78.2365 33.9915 78.2365 34.3523V34.9318C78.2365 35.4261 78.3217 35.8452 78.4922 36.1889C78.6655 36.5298 78.9055 36.7898 79.2124 36.9688C79.5192 37.1449 79.8757 37.233 80.282 37.233C80.5462 37.233 80.7848 37.196 80.9979 37.1222C81.2138 37.0455 81.3999 36.9318 81.5561 36.7812C81.7124 36.6278 81.8331 36.4375 81.9183 36.2102L82.8899 36.483C82.7876 36.8125 82.6158 37.1023 82.3743 37.3523C82.1328 37.5994 81.8345 37.7926 81.4794 37.9318C81.1243 38.0682 80.7251 38.1364 80.282 38.1364ZM90.7266 38H88.0334V29.2727H90.8459C91.6925 29.2727 92.4169 29.4474 93.0192 29.7969C93.6214 30.1435 94.0831 30.642 94.4041 31.2926C94.7251 31.9403 94.8857 32.7159 94.8857 33.6193C94.8857 34.5284 94.7237 35.3111 94.3999 35.9673C94.076 36.6207 93.6044 37.1236 92.9851 37.4759C92.3658 37.8253 91.6129 38 90.7266 38ZM89.0902 37.0625H90.6584C91.38 37.0625 91.978 36.9233 92.4524 36.6449C92.9268 36.3665 93.2805 35.9702 93.5135 35.456C93.7464 34.9418 93.8629 34.3295 93.8629 33.6193C93.8629 32.9148 93.7479 32.3082 93.5178 31.7997C93.2876 31.2884 92.9439 30.8963 92.4865 30.6236C92.0291 30.348 91.4595 30.2102 90.7777 30.2102H89.0902V37.0625ZM99.2663 38.1364C98.6357 38.1364 98.0916 37.9972 97.6342 37.7188C97.1797 37.4375 96.8288 37.0455 96.5817 36.5426C96.3374 36.0369 96.2152 35.4489 96.2152 34.7784C96.2152 34.108 96.3374 33.517 96.5817 33.0057C96.8288 32.4915 97.1726 32.0909 97.6129 31.804C98.0561 31.5142 98.5732 31.3693 99.1641 31.3693C99.505 31.3693 99.8416 31.4261 100.174 31.5398C100.506 31.6534 100.809 31.8381 101.082 32.0938C101.354 32.3466 101.572 32.6818 101.734 33.0994C101.896 33.517 101.977 34.0312 101.977 34.642V35.0682H96.9311V34.1989H100.954C100.954 33.8295 100.88 33.5 100.732 33.2102C100.587 32.9205 100.38 32.6918 100.11 32.5241C99.843 32.3565 99.5277 32.2727 99.1641 32.2727C98.7635 32.2727 98.4169 32.3722 98.1243 32.571C97.8345 32.767 97.6115 33.0227 97.4553 33.3381C97.299 33.6534 97.2209 33.9915 97.2209 34.3523V34.9318C97.2209 35.4261 97.3061 35.8452 97.4766 36.1889C97.6499 36.5298 97.8899 36.7898 98.1967 36.9688C98.5036 37.1449 98.8601 37.233 99.2663 37.233C99.5305 37.233 99.7692 37.196 99.9822 37.1222C100.198 37.0455 100.384 36.9318 100.54 36.7812C100.697 36.6278 100.817 36.4375 100.903 36.2102L101.874 36.483C101.772 36.8125 101.6 37.1023 101.359 37.3523C101.117 37.5994 100.819 37.7926 100.464 37.9318C100.109 38.0682 99.7095 38.1364 99.2663 38.1364ZM103.506 38V31.4545H104.478V32.4773H104.563C104.7 32.1278 104.92 31.8565 105.224 31.6634C105.528 31.4673 105.893 31.3693 106.319 31.3693C106.751 31.3693 107.11 31.4673 107.397 31.6634C107.687 31.8565 107.913 32.1278 108.075 32.4773H108.143C108.31 32.1392 108.562 31.8707 108.897 31.6719C109.232 31.4702 109.634 31.3693 110.103 31.3693C110.688 31.3693 111.167 31.5526 111.539 31.919C111.911 32.2827 112.097 32.8494 112.097 33.6193V38H111.092V33.6193C111.092 33.1364 110.96 32.7912 110.695 32.5838C110.431 32.3764 110.12 32.2727 109.762 32.2727C109.302 32.2727 108.945 32.4119 108.692 32.6903C108.44 32.9659 108.313 33.3153 108.313 33.7386V38H107.29V33.517C107.29 33.1449 107.17 32.8452 106.928 32.6179C106.687 32.3878 106.376 32.2727 105.995 32.2727C105.734 32.2727 105.489 32.3423 105.262 32.4815C105.038 32.6207 104.856 32.8139 104.717 33.0611C104.58 33.3054 104.512 33.5881 104.512 33.9091V38H103.506ZM116.595 38.1364C116.004 38.1364 115.486 37.9957 115.04 37.7145C114.597 37.4332 114.25 37.0398 114 36.5341C113.753 36.0284 113.629 35.4375 113.629 34.7614C113.629 34.0795 113.753 33.4844 114 32.9759C114.25 32.4673 114.597 32.0724 115.04 31.7912C115.486 31.5099 116.004 31.3693 116.595 31.3693C117.186 31.3693 117.703 31.5099 118.146 31.7912C118.592 32.0724 118.939 32.4673 119.186 32.9759C119.436 33.4844 119.561 34.0795 119.561 34.7614C119.561 35.4375 119.436 36.0284 119.186 36.5341C118.939 37.0398 118.592 37.4332 118.146 37.7145C117.703 37.9957 117.186 38.1364 116.595 38.1364ZM116.595 37.233C117.044 37.233 117.413 37.1179 117.703 36.8878C117.993 36.6577 118.207 36.3551 118.347 35.9801C118.486 35.6051 118.555 35.1989 118.555 34.7614C118.555 34.3239 118.486 33.9162 118.347 33.5384C118.207 33.1605 117.993 32.8551 117.703 32.6222C117.413 32.3892 117.044 32.2727 116.595 32.2727C116.146 32.2727 115.777 32.3892 115.487 32.6222C115.197 32.8551 114.983 33.1605 114.844 33.5384C114.705 33.9162 114.635 34.3239 114.635 34.7614C114.635 35.1989 114.705 35.6051 114.844 35.9801C114.983 36.3551 115.197 36.6577 115.487 36.8878C115.777 37.1179 116.146 37.233 116.595 37.233ZM124.608 38V29.2727H127.659C128.267 29.2727 128.768 29.3778 129.163 29.5881C129.558 29.7955 129.852 30.0753 130.045 30.4276C130.238 30.777 130.335 31.1648 130.335 31.5909C130.335 31.9659 130.268 32.2756 130.135 32.5199C130.004 32.7642 129.831 32.9574 129.615 33.0994C129.402 33.2415 129.17 33.3466 128.92 33.4148V33.5C129.187 33.517 129.456 33.6108 129.725 33.7812C129.995 33.9517 130.221 34.196 130.403 34.5142C130.585 34.8324 130.676 35.2216 130.676 35.6818C130.676 36.1193 130.576 36.5128 130.377 36.8622C130.179 37.2116 129.865 37.4886 129.436 37.6932C129.007 37.8977 128.449 38 127.761 38H124.608ZM125.664 37.0625H127.761C128.451 37.0625 128.941 36.929 129.231 36.6619C129.524 36.392 129.67 36.0653 129.67 35.6818C129.67 35.3864 129.595 35.1136 129.444 34.8636C129.294 34.6108 129.079 34.4091 128.801 34.2585C128.522 34.1051 128.193 34.0284 127.812 34.0284H125.664V37.0625ZM125.664 33.108H127.625C127.943 33.108 128.23 33.0455 128.485 32.9205C128.744 32.7955 128.949 32.6193 129.099 32.392C129.252 32.1648 129.329 31.8977 129.329 31.5909C129.329 31.2074 129.196 30.8821 128.929 30.6151C128.662 30.3452 128.238 30.2102 127.659 30.2102H125.664V33.108ZM132.276 38V31.4545H133.248V32.4432H133.316C133.435 32.1193 133.651 31.8565 133.963 31.6548C134.276 31.4531 134.628 31.3523 135.02 31.3523C135.094 31.3523 135.186 31.3537 135.297 31.3565C135.408 31.3594 135.492 31.3636 135.549 31.3693V32.392C135.515 32.3835 135.436 32.3707 135.314 32.3537C135.195 32.3338 135.069 32.3239 134.935 32.3239C134.617 32.3239 134.333 32.3906 134.083 32.5241C133.836 32.6548 133.64 32.8366 133.495 33.0696C133.353 33.2997 133.282 33.5625 133.282 33.858V38H132.276ZM138.667 38.1534C138.252 38.1534 137.876 38.0753 137.538 37.919C137.2 37.7599 136.931 37.5312 136.732 37.233C136.533 36.9318 136.434 36.5682 136.434 36.142C136.434 35.767 136.508 35.4631 136.656 35.2301C136.803 34.9943 137.001 34.8097 137.248 34.6761C137.495 34.5426 137.768 34.4432 138.066 34.3778C138.367 34.3097 138.67 34.2557 138.974 34.2159C139.371 34.1648 139.694 34.1264 139.941 34.1009C140.191 34.0724 140.373 34.0256 140.487 33.9602C140.603 33.8949 140.661 33.7812 140.661 33.6193V33.5852C140.661 33.1648 140.546 32.8381 140.316 32.6051C140.089 32.3722 139.744 32.2557 139.281 32.2557C138.8 32.2557 138.424 32.3608 138.151 32.571C137.879 32.7812 137.687 33.0057 137.576 33.2443L136.621 32.9034C136.792 32.5057 137.019 32.196 137.303 31.9744C137.59 31.75 137.903 31.5937 138.241 31.5057C138.582 31.4148 138.917 31.3693 139.246 31.3693C139.457 31.3693 139.698 31.3949 139.971 31.446C140.246 31.4943 140.512 31.5952 140.768 31.7486C141.026 31.902 141.241 32.1335 141.411 32.4432C141.582 32.7528 141.667 33.1676 141.667 33.6875V38H140.661V37.1136H140.61C140.542 37.2557 140.428 37.4077 140.269 37.5696C140.11 37.7315 139.898 37.8693 139.634 37.983C139.37 38.0966 139.048 38.1534 138.667 38.1534ZM138.82 37.25C139.218 37.25 139.553 37.1719 139.826 37.0156C140.102 36.8594 140.309 36.6577 140.448 36.4105C140.59 36.1634 140.661 35.9034 140.661 35.6307V34.7102C140.619 34.7614 140.525 34.8082 140.38 34.8509C140.238 34.8906 140.073 34.9261 139.886 34.9574C139.701 34.9858 139.521 35.0114 139.344 35.0341C139.171 35.054 139.031 35.071 138.923 35.0852C138.661 35.1193 138.417 35.1747 138.19 35.2514C137.965 35.3253 137.783 35.4375 137.644 35.5881C137.508 35.7358 137.44 35.9375 137.44 36.1932C137.44 36.5426 137.569 36.8068 137.827 36.9858C138.089 37.1619 138.42 37.25 138.82 37.25ZM144.508 34.0625V38H143.502V31.4545H144.474V32.4773H144.559C144.713 32.1449 144.946 31.8778 145.258 31.6761C145.571 31.4716 145.974 31.3693 146.468 31.3693C146.912 31.3693 147.299 31.4602 147.632 31.642C147.964 31.821 148.223 32.0938 148.407 32.4602C148.592 32.8239 148.684 33.2841 148.684 33.8409V38H147.679V33.9091C147.679 33.3949 147.545 32.9943 147.278 32.7074C147.011 32.4176 146.645 32.2727 146.179 32.2727C145.858 32.2727 145.571 32.3423 145.318 32.4815C145.068 32.6207 144.87 32.8239 144.725 33.0909C144.581 33.358 144.508 33.6818 144.508 34.0625ZM152.994 38.1364C152.448 38.1364 151.967 37.9986 151.549 37.723C151.131 37.4446 150.805 37.0526 150.569 36.5469C150.333 36.0384 150.215 35.4375 150.215 34.7443C150.215 34.0568 150.333 33.4602 150.569 32.9545C150.805 32.4489 151.133 32.0582 151.553 31.7827C151.974 31.5071 152.46 31.3693 153.011 31.3693C153.437 31.3693 153.773 31.4403 154.021 31.5824C154.271 31.7216 154.461 31.8807 154.592 32.0597C154.725 32.2358 154.829 32.3807 154.903 32.4943H154.988V29.2727H155.994V38H155.022V36.9943H154.903C154.829 37.1136 154.724 37.2642 154.587 37.446C154.451 37.625 154.256 37.7855 154.004 37.9276C153.751 38.0668 153.414 38.1364 152.994 38.1364ZM153.13 37.233C153.533 37.233 153.874 37.1278 154.153 36.9176C154.431 36.7045 154.643 36.4105 154.788 36.0355C154.933 35.6577 155.005 35.2216 155.005 34.7273C155.005 34.2386 154.934 33.8111 154.792 33.4446C154.65 33.0753 154.44 32.7884 154.161 32.5838C153.883 32.3764 153.539 32.2727 153.13 32.2727C152.704 32.2727 152.349 32.3821 152.065 32.6009C151.783 32.8168 151.572 33.1108 151.43 33.483C151.29 33.8523 151.221 34.267 151.221 34.7273C151.221 35.1932 151.292 35.6165 151.434 35.9972C151.579 36.375 151.792 36.6761 152.073 36.9006C152.357 37.1222 152.71 37.233 153.13 37.233Z" fill="#797986"/>
    <defs>
        <filter id="filter0_f_813_35645" x="-23.5243" y="-26.6859" width="71.4158" height="74.4414" filterUnits="userSpaceOnUse" color-interpolation-filters="sRGB">
            <feFlood flood-opacity="0" result="BackgroundImageFix"/>
            <feBlend mode="normal" in="SourceGraphic" in2="BackgroundImageFix" result="shape"/>
            <feGaussianBlur stdDeviation="7.77778" result="effect1_foregroundBlur_813_35645"/>
        </filter>
        <clipPath id="clip0_813_35645">
            <rect width="28" height="28" fill="white"/>
        </clipPath>
    </defs>
</svg>
