<svg width="37" height="36" viewBox="0 0 37 36" fill="none" xmlns="http://www.w3.org/2000/svg">
  <rect x="1" y="0.5" width="35" height="35" rx="17.5" fill="#0E1414"/>
  <rect x="1" y="0.5" width="35" height="35" rx="17.5" stroke="url(#paint0_linear_272_2901)"/>
  <path d="M18.5 11C17.1155 11 15.7622 11.4105 14.611 12.1797C13.4599 12.9489 12.5627 14.0421 12.0328 15.3212C11.503 16.6003 11.3644 18.0078 11.6345 19.3656C11.9046 20.7235 12.5713 21.9708 13.5503 22.9497C14.5292 23.9287 15.7765 24.5954 17.1344 24.8655C18.4922 25.1356 19.8997 24.997 21.1788 24.4672C22.4579 23.9373 23.5511 23.0401 24.3203 21.889C25.0895 20.7378 25.5 19.3845 25.5 18C25.5 16.1435 24.7625 14.363 23.4498 13.0503C22.137 11.7375 20.3565 11 18.5 11ZM24.5 17.5H21.5C21.4416 15.6585 20.9646 13.8546 20.105 12.225C21.2893 12.5489 22.3457 13.2284 23.1316 14.1717C23.9175 15.115 24.3952 16.2767 24.5 17.5ZM18.5 24C18.3885 24.0075 18.2765 24.0075 18.165 24C17.1291 22.3481 16.5543 20.4491 16.5 18.5H20.5C20.4503 20.4477 19.8806 22.3466 18.85 24C18.7335 24.0082 18.6165 24.0082 18.5 24ZM16.5 17.5C16.5497 15.5523 17.1194 13.6534 18.15 12C18.3726 11.975 18.5974 11.975 18.82 12C19.8611 13.6504 20.4412 15.5495 20.5 17.5H16.5ZM16.88 12.225C16.0257 13.8558 15.5537 15.6597 15.5 17.5H12.5C12.6049 16.2767 13.0825 15.115 13.8684 14.1717C14.6543 13.2284 15.7107 12.5489 16.895 12.225H16.88ZM12.525 18.5H15.525C15.5772 20.3399 16.0474 22.1438 16.9 23.775C15.7194 23.4476 14.6674 22.7666 13.8853 21.8236C13.1032 20.8806 12.6285 19.7208 12.525 18.5ZM20.105 23.775C20.9646 22.1454 21.4416 20.3415 21.5 18.5H24.5C24.3952 19.7233 23.9175 20.885 23.1316 21.8283C22.3457 22.7716 21.2893 23.4511 20.105 23.775Z" fill="white"/>
  <defs>
    <linearGradient id="paint0_linear_272_2901" x1="18.5" y1="0" x2="18.5" y2="36" gradientUnits="userSpaceOnUse">
      <stop stop-color="#414B4E"/>
      <stop offset="1" stop-color="#414B4E" stop-opacity="0"/>
    </linearGradient>
  </defs>
</svg>
