<svg width="120" height="24" viewBox="0 0 120 24" fill="none" xmlns="http://www.w3.org/2000/svg">
  <g clip-path="url(#clip0_180_13818)">
    <path d="M79.5938 0.0102539H100.443V3.85843H92.1722V24.1032H88.0366V3.85843H79.5938V0.0102539Z" fill="#797C7C"/>
    <path d="M45.306 0.0102539V3.85843H28.5941V10.049H42.0338V13.8971H28.5941V20.255H45.306V24.1032H24.4588V3.85843H24.457V0.0102539H45.306Z" fill="#797C7C"/>
    <path d="M55.7126 0.0200195H50.3008L69.6849 24.113H75.1125L65.4193 12.0748L75.097 0.0384009L69.6849 0.0467645L62.7097 8.70971L55.7126 0.0200195Z" fill="#797C7C"/>
    <path d="M61.2698 17.2296L58.5596 13.8599L50.2891 24.1312H55.7164L61.2698 17.2296Z" fill="#797C7C"/>
    <path fill-rule="evenodd" clip-rule="evenodd" d="M24.6028 24.103L5.19258 0H0.0234375V24.0929H4.15876V5.14985L19.4078 24.103H24.6028Z" fill="#797C7C"/>
    <path d="M101.373 23.9557C101.07 23.9557 100.813 23.8508 100.597 23.641C100.381 23.4311 100.275 23.1771 100.277 22.8762C100.275 22.5835 100.381 22.3322 100.597 22.1224C100.813 21.9125 101.07 21.8076 101.373 21.8076C101.665 21.8076 101.919 21.9125 102.135 22.1224C102.354 22.3322 102.463 22.5835 102.466 22.8762C102.463 23.0749 102.412 23.2572 102.312 23.4201C102.208 23.5857 102.076 23.7155 101.911 23.8094C101.748 23.906 101.569 23.9557 101.373 23.9557Z" fill="#797C7C"/>
    <path d="M108.427 13.8062H110.26V20.8662C110.257 21.515 110.117 22.07 109.843 22.5367C109.565 23.0033 109.181 23.3594 108.688 23.6107C108.198 23.8591 107.623 23.9862 106.97 23.9862C106.374 23.9862 105.839 23.8785 105.362 23.6687C104.886 23.4588 104.508 23.1441 104.23 22.7299C103.95 22.3157 103.812 21.7994 103.812 21.181H105.648C105.651 21.4516 105.712 21.6862 105.83 21.8822C105.948 22.0783 106.11 22.2274 106.318 22.3323C106.528 22.4372 106.769 22.4897 107.04 22.4897C107.335 22.4897 107.587 22.4289 107.791 22.3047C107.996 22.1832 108.153 22.001 108.262 21.758C108.369 21.5178 108.425 21.2196 108.427 20.8662V13.8062Z" fill="#797C7C"/>
    <path d="M117.802 16.5672C117.757 16.1393 117.561 15.8052 117.219 15.5677C116.875 15.3275 116.429 15.2088 115.883 15.2088C115.499 15.2088 115.169 15.2668 114.894 15.38C114.619 15.496 114.406 15.6506 114.26 15.8466C114.115 16.0426 114.042 16.2663 114.036 16.5176C114.036 16.7274 114.087 16.9096 114.185 17.0615C114.283 17.2161 114.414 17.3459 114.586 17.4508C114.754 17.5585 114.941 17.6468 115.146 17.7186C115.353 17.7904 115.561 17.8512 115.768 17.9009L116.723 18.1355C117.107 18.2239 117.48 18.3426 117.836 18.4945C118.192 18.6436 118.514 18.8341 118.797 19.0632C119.08 19.2924 119.304 19.5685 119.469 19.8916C119.635 20.2146 119.719 20.5929 119.719 21.0291C119.719 21.6172 119.568 22.1335 119.262 22.5808C118.957 23.0253 118.517 23.3732 117.939 23.6245C117.365 23.873 116.67 24 115.852 24C115.062 24 114.373 23.8786 113.793 23.6356C113.21 23.3954 112.756 23.0419 112.428 22.5781C112.1 22.1142 111.924 21.5482 111.898 20.8828H113.714C113.739 21.2307 113.852 21.5206 114.042 21.7553C114.235 21.9872 114.487 22.1584 114.796 22.2744C115.107 22.3875 115.454 22.4455 115.838 22.4455C116.239 22.4455 116.592 22.3848 116.897 22.2661C117.2 22.1473 117.438 21.9817 117.609 21.7663C117.783 21.5537 117.87 21.3025 117.872 21.0153C117.87 20.753 117.791 20.5349 117.64 20.3637C117.486 20.1925 117.273 20.0489 117.001 19.933C116.726 19.817 116.407 19.7121 116.043 19.621L114.883 19.3283C114.045 19.1157 113.381 18.7927 112.896 18.3592C112.409 17.9257 112.167 17.3514 112.167 16.6308C112.167 16.0399 112.33 15.5208 112.658 15.0763C112.983 14.6318 113.428 14.2866 113.992 14.0409C114.558 13.7924 115.196 13.6709 115.908 13.6709C116.631 13.6709 117.264 13.7924 117.811 14.0409C118.357 14.2866 118.786 14.629 119.097 15.0652C119.408 15.5015 119.57 16.0012 119.579 16.5672H117.802Z" fill="#797C7C"/>
  </g>
  <defs>
    <clipPath id="clip0_180_13818">
      <rect width="119.696" height="24" fill="white" transform="translate(0.0234375)"/>
    </clipPath>
  </defs>
</svg>
