<svg width="54" height="16" viewBox="0 0 54 16" fill="none" xmlns="http://www.w3.org/2000/svg">
  <path d="M0.25 8.22391V7.79092C0.780318 7.79079 1.28888 7.58004 1.66387 7.20501C2.03886 6.82997 2.24958 6.32135 2.24971 5.79098H2.64994C2.64963 6.05384 2.70111 6.31418 2.80146 6.55713C2.90181 6.80008 3.04905 7.02087 3.23477 7.20687C3.42048 7.39288 3.64103 7.54045 3.88381 7.64116C4.12658 7.74187 4.38682 7.79374 4.64966 7.7938V8.22679C4.11934 8.22692 3.61078 8.43767 3.23579 8.8127C2.8608 9.18774 2.65007 9.69636 2.64994 10.2267H2.24971C2.25003 9.96387 2.19854 9.70353 2.09819 9.46058C1.99785 9.21763 1.85061 8.99684 1.66489 8.81084C1.47917 8.62483 1.25863 8.47726 1.01585 8.37655C0.773073 8.27584 0.512831 8.22397 0.25 8.22391ZM2.24971 5.03998H5.6892C7.36901 5.03998 8.56923 6.23984 8.56923 8.0002C8.56923 9.76055 7.3695 10.9599 5.6892 10.9599H2.24971V16H3.68949V12.2401H5.6892C8.10502 12.2401 10.009 10.3359 10.009 8.0002C10.009 5.66445 8.10502 3.75977 5.6892 3.75977H2.24971V5.03998Z" fill="#F5F5F6"/>
  <path d="M15.1765 3.74414C16.4402 3.74414 17.5601 4.38401 18.2639 5.3924V4.00009H19.7036V12.0003H18.2639V10.608C17.5423 11.6183 16.4243 12.2563 15.1765 12.2563C12.8083 12.2563 10.8086 10.3843 10.8086 8.00045C10.8086 5.61659 12.8083 3.74414 15.1765 3.74414ZM15.1765 10.9761C17.0319 10.9761 18.2639 9.69633 18.2639 8.00045C18.2639 6.28821 17.0483 5.02435 15.1765 5.02435C13.5126 5.02435 12.2484 6.22422 12.2484 8.00045C12.2484 9.77667 13.5126 10.9761 15.1765 10.9761Z" fill="#F5F5F6"/>
  <path d="M25.0315 3.74393C26.2957 3.74393 27.4156 4.3838 28.1193 5.39219V0H29.5591V12.0001H28.1193V10.6078C27.4156 11.6181 26.2957 12.2561 25.0315 12.2561C22.6638 12.2561 20.6641 10.3841 20.6641 8.00024C20.6641 5.61638 22.6638 3.74393 25.0315 3.74393ZM25.0315 10.9759C26.9032 10.9759 28.1193 9.712 28.1193 8.00024C28.1193 6.28848 26.9032 5.02415 25.0315 5.02415C23.368 5.02415 22.1038 6.22401 22.1038 8.00024C22.1038 9.77647 23.368 10.9759 25.0315 10.9759Z" fill="#F5F5F6"/>
  <path d="M35.0471 3.74393C36.3108 3.74393 37.4307 4.3838 38.135 5.39219V0H39.5747V12.0001H38.135V10.6078C37.4307 11.6181 36.3108 12.2561 35.0471 12.2561C32.6794 12.2561 30.6797 10.3841 30.6797 8.00024C30.6797 5.61638 32.6794 3.74393 35.0471 3.74393ZM35.0471 10.9759C36.9189 10.9759 38.135 9.712 38.135 8.00024C38.135 6.28848 36.9189 5.02415 35.0471 5.02415C33.3832 5.02415 32.1195 6.22401 32.1195 8.00024C32.1195 9.77647 33.3832 10.9759 35.0471 10.9759Z" fill="#F5F5F6"/>
  <path d="M41.0117 12.0001V0H42.452V12.0001H41.0117Z" fill="#F5F5F6"/>
  <path d="M47.7837 3.76025C50.5511 3.76025 51.8788 5.9204 51.8788 8.56069H44.9681C45.1918 10.1122 46.3439 11.1206 47.7837 11.1206C48.7756 11.1206 49.5433 10.6722 50.1192 9.79231H51.671C51.1269 11.0244 49.7035 12.2406 47.7837 12.2406C45.3678 12.2406 43.4961 10.3042 43.4961 8.00068C43.4961 5.69717 45.3678 3.76025 47.7837 3.76025ZM50.4391 7.44068C50.4391 6.12824 49.3192 4.88026 47.7837 4.88026C46.3439 4.88026 45.1918 5.89057 44.9681 7.44068H50.4391Z" fill="#F5F5F6"/>
</svg>
