<svg width="81" height="24" viewBox="0 0 81 24" fill="none" xmlns="http://www.w3.org/2000/svg">
  <path d="M0.0976562 12.3359V11.6864C0.893133 11.6862 1.65597 11.3701 2.21846 10.8075C2.78095 10.245 3.09703 9.48203 3.09722 8.68647H3.69757C3.6971 9.08076 3.77433 9.47128 3.92485 9.8357C4.07537 10.2001 4.29623 10.5313 4.5748 10.8103C4.85338 11.0893 5.1842 11.3107 5.54837 11.4617C5.91253 11.6128 6.30289 11.6906 6.69714 11.6907V12.3402C5.90166 12.3404 5.13882 12.6565 4.57634 13.2191C4.01385 13.7816 3.69776 14.5445 3.69757 15.3401H3.09722C3.0977 14.9458 3.02047 14.5553 2.86995 14.1909C2.71943 13.8264 2.49857 13.4953 2.21999 13.2163C1.94142 12.9372 1.61059 12.7159 1.24643 12.5648C0.882266 12.4138 0.491903 12.336 0.0976562 12.3359V12.3359ZM3.09722 7.55997H8.25645C10.7762 7.55997 12.5765 9.35977 12.5765 12.0003C12.5765 14.6408 10.7769 16.4399 8.25645 16.4399H3.09722V23.9999H5.25689V18.3602H8.25645C11.8802 18.3602 14.7362 15.5039 14.7362 12.0003C14.7362 8.49667 11.8802 5.63965 8.25645 5.63965H3.09722V7.55997Z" fill="#797C7C"/>
  <path d="M22.4855 5.61572C24.381 5.61572 26.0608 6.57552 27.1165 8.0881V5.99964H29.2762V18H27.1165V15.9115C26.0341 17.427 24.3572 18.3839 22.4855 18.3839C18.9332 18.3839 15.9336 15.576 15.9336 12.0002C15.9336 8.42439 18.9332 5.61572 22.4855 5.61572ZM22.4855 16.4636C25.2686 16.4636 27.1165 14.544 27.1165 12.0002C27.1165 9.43182 25.2931 7.53604 22.4855 7.53604C19.9895 7.53604 18.0933 9.33584 18.0933 12.0002C18.0933 14.6645 19.9895 16.4636 22.4855 16.4636Z" fill="#797C7C"/>
  <path d="M37.266 5.6159C39.1623 5.6159 40.8421 6.5757 41.8977 8.08828V0H44.0574V18.0002H41.8977V15.9117C40.8421 17.4272 39.1623 18.3841 37.266 18.3841C33.7144 18.3841 30.7148 15.5761 30.7148 12.0004C30.7148 8.42457 33.7144 5.6159 37.266 5.6159ZM37.266 16.4638C40.0736 16.4638 41.8977 14.568 41.8977 12.0004C41.8977 9.43272 40.0736 7.53622 37.266 7.53622C34.7708 7.53622 32.8745 9.33602 32.8745 12.0004C32.8745 14.6647 34.7708 16.4638 37.266 16.4638Z" fill="#797C7C"/>
  <path d="M52.2894 5.6159C54.185 5.6159 55.8648 6.5757 56.9212 8.08828V0H59.0808V18.0002H56.9212V15.9117C55.8648 17.4272 54.185 18.3841 52.2894 18.3841C48.7379 18.3841 45.7383 15.5761 45.7383 12.0004C45.7383 8.42457 48.7379 5.6159 52.2894 5.6159ZM52.2894 16.4638C55.097 16.4638 56.9212 14.568 56.9212 12.0004C56.9212 9.43272 55.097 7.53622 52.2894 7.53622C49.7935 7.53622 47.8979 9.33602 47.8979 12.0004C47.8979 14.6647 49.7935 16.4638 52.2894 16.4638Z" fill="#797C7C"/>
  <path d="M61.2383 18.0002V0H63.3987V18.0002H61.2383Z" fill="#797C7C"/>
  <path d="M71.3923 5.64014C75.5435 5.64014 77.535 8.88036 77.535 12.8408H67.1689C67.5045 15.1681 69.2326 16.6807 71.3923 16.6807C72.8802 16.6807 74.0318 16.0081 74.8955 14.6882H77.2233C76.4072 16.5364 74.2721 18.3607 71.3923 18.3607C67.7686 18.3607 64.9609 15.4561 64.9609 12.0008C64.9609 8.54551 67.7686 5.64014 71.3923 5.64014ZM75.3754 11.1608C75.3754 9.19211 73.6956 7.32014 71.3923 7.32014C69.2326 7.32014 67.5045 8.83561 67.1689 11.1608H75.3754Z" fill="#797C7C"/>
</svg>
