<svg width="137" height="32" viewBox="0 0 137 32" fill="none" xmlns="http://www.w3.org/2000/svg">
  <path d="M26 16L16 26" stroke="#797C7C" stroke-width="2" stroke-linecap="round" stroke-linejoin="round"/>
  <path d="M24 5L5 24" stroke="#797C7C" stroke-width="2" stroke-linecap="round" stroke-linejoin="round"/>
  <path d="M45.7536 22.7381C44.2325 22.7381 43.0487 22.414 42.2022 21.7659C41.3557 21.1178 40.8928 20.2515 40.8134 19.1669L43.4125 19.0478C43.5051 19.6166 43.7365 20.0531 44.1069 20.3573C44.4905 20.6483 45.0394 20.7938 45.7536 20.7938C47.0234 20.7938 47.6582 20.397 47.6582 19.6034C47.6582 19.3521 47.5987 19.147 47.4797 18.9883C47.3606 18.8296 47.1358 18.6907 46.8051 18.5717C46.4745 18.4526 45.9851 18.3402 45.337 18.2344C44.2524 18.0492 43.3993 17.8244 42.7776 17.5598C42.1692 17.2821 41.7327 16.9448 41.4682 16.548C41.2036 16.138 41.0714 15.6221 41.0714 15.0005C41.0714 13.9953 41.4615 13.1884 42.2419 12.58C43.0223 11.9716 44.1267 11.6674 45.5552 11.6674C46.9308 11.6674 48.0021 11.9914 48.7693 12.6395C49.5497 13.2876 50.0192 14.154 50.1779 15.2386L47.5987 15.3576C47.5061 14.8153 47.2813 14.3921 46.9242 14.0878C46.567 13.7704 46.1041 13.6117 45.5354 13.6117C44.9402 13.6117 44.4838 13.7307 44.1664 13.9688C43.8622 14.2069 43.7101 14.5243 43.7101 14.9211C43.7101 15.3444 43.8688 15.6618 44.1862 15.8734C44.5037 16.0718 45.0658 16.2372 45.8726 16.3694C46.9837 16.5414 47.8566 16.7662 48.4915 17.044C49.1396 17.3085 49.6026 17.6458 49.8803 18.0558C50.1581 18.4526 50.297 18.9553 50.297 19.5637C50.297 20.5689 49.8803 21.3493 49.047 21.9048C48.227 22.4603 47.1292 22.7381 45.7536 22.7381ZM52.1807 8.4136H54.7202V13.3339C54.9847 12.7784 55.3815 12.3618 55.9106 12.084C56.4397 11.8062 57.0481 11.6674 57.7359 11.6674C58.8734 11.6674 59.7529 12.0377 60.3746 12.7784C61.0095 13.5059 61.3269 14.478 61.3269 15.6949V22.5H58.7874V16.3099C58.7874 15.437 58.6353 14.7889 58.3311 14.3656C58.0401 13.9423 57.5904 13.7307 56.982 13.7307C56.2809 13.7307 55.7254 13.9622 55.3154 14.4251C54.9186 14.8748 54.7202 15.5229 54.7202 16.3694V22.5H52.1807V8.4136ZM66.9787 22.7381C65.8544 22.7381 64.955 22.4868 64.2804 21.9842C63.6191 21.4683 63.2884 20.7541 63.2884 19.8414C63.2884 18.942 63.5662 18.2344 64.1217 17.7186C64.6905 17.1895 65.5634 16.8125 66.7406 16.5877L70.2523 15.8933C70.2523 15.1526 70.0803 14.5905 69.7364 14.2069C69.3925 13.8233 68.8899 13.6315 68.2286 13.6315C67.025 13.6315 66.3041 14.1804 66.066 15.2782L63.467 15.1592C63.6786 14.0482 64.1945 13.1884 65.0145 12.58C65.8346 11.9716 66.9059 11.6674 68.2286 11.6674C69.7232 11.6674 70.8541 12.0509 71.6212 12.8181C72.4016 13.572 72.7918 14.6566 72.7918 16.0718V19.9208C72.7918 20.1986 72.8381 20.3903 72.9307 20.4962C73.0233 20.602 73.1754 20.6549 73.387 20.6549H73.7243V22.5C73.5127 22.5529 73.2084 22.5794 72.8116 22.5794C72.19 22.5794 71.6874 22.4471 71.3038 22.1826C70.9335 21.918 70.6954 21.4749 70.5896 20.8533C70.325 21.422 69.8687 21.8783 69.2206 22.2222C68.5857 22.5661 67.8384 22.7381 66.9787 22.7381ZM67.4945 20.893C68.3278 20.893 68.9957 20.6483 69.4984 20.1589C70.001 19.6695 70.2523 19.0214 70.2523 18.2146V17.6194L67.5144 18.1749C66.9588 18.2807 66.5554 18.4526 66.3041 18.6907C66.0528 18.9288 65.9272 19.233 65.9272 19.6034C65.9272 20.0134 66.0594 20.3308 66.324 20.5557C66.6017 20.7805 66.9919 20.893 67.4945 20.893ZM79.3954 22.7381C78.496 22.7381 77.7156 22.5132 77.0543 22.0635C76.393 21.6138 75.8837 20.9723 75.5266 20.139C75.1695 19.3058 74.9909 18.327 74.9909 17.2027C74.9909 16.0785 75.1695 15.0997 75.5266 14.2664C75.897 13.4331 76.4128 12.7916 77.0741 12.3419C77.7355 11.8922 78.5092 11.6674 79.3954 11.6674C80.1229 11.6674 80.7644 11.8261 81.3199 12.1435C81.8886 12.4477 82.3185 12.871 82.6095 13.4133V8.4136H85.149V22.5H82.7484L82.6889 20.9326C82.3846 21.5014 81.9416 21.9445 81.3596 22.2619C80.7776 22.5794 80.1229 22.7381 79.3954 22.7381ZM80.1493 20.6747C80.9297 20.6747 81.5315 20.3771 81.9548 19.7819C82.3913 19.1735 82.6095 18.3138 82.6095 17.2027C82.6095 16.0785 82.3979 15.2187 81.9746 14.6235C81.5514 14.0283 80.9429 13.7307 80.1493 13.7307C79.369 13.7307 78.7539 14.0415 78.3042 14.6632C77.8545 15.2849 77.6297 16.1314 77.6297 17.2027C77.6297 18.2609 77.8545 19.1074 78.3042 19.7422C78.7672 20.3639 79.3822 20.6747 80.1493 20.6747ZM92.512 22.7381C91.4671 22.7381 90.5478 22.5132 89.7542 22.0635C88.9739 21.6006 88.3654 20.9525 87.9289 20.1192C87.5057 19.2859 87.2941 18.3138 87.2941 17.2027C87.2941 16.1049 87.5057 15.1394 87.9289 14.3061C88.3654 13.4596 88.9739 12.8115 89.7542 12.3618C90.5478 11.8988 91.4671 11.6674 92.512 11.6674C93.8743 11.6674 94.9986 12.0245 95.8848 12.7387C96.771 13.4397 97.2934 14.4119 97.4521 15.6552L94.8333 15.7941C94.7407 15.1327 94.4828 14.6235 94.0595 14.2664C93.6495 13.9093 93.1336 13.7307 92.512 13.7307C91.6919 13.7307 91.0571 14.0349 90.6073 14.6434C90.1576 15.2518 89.9328 16.1049 89.9328 17.2027C89.9328 18.3005 90.1576 19.1537 90.6073 19.7621C91.0571 20.3705 91.6919 20.6747 92.512 20.6747C93.1469 20.6747 93.6693 20.4895 94.0793 20.1192C94.4894 19.7489 94.7407 19.1999 94.8333 18.4725L97.4521 18.5915C97.3067 19.8613 96.7842 20.8731 95.8848 21.627C94.9986 22.3677 93.8743 22.7381 92.512 22.7381ZM99.3201 11.9054H101.621L101.681 13.7307C101.946 13.0297 102.356 12.5139 102.911 12.1832C103.467 11.8393 104.115 11.6674 104.855 11.6674C106.006 11.6674 106.892 12.0377 107.514 12.7784C108.149 13.5059 108.466 14.478 108.466 15.6949V22.5H105.927V16.5083C105.927 15.5825 105.781 14.8881 105.49 14.4251C105.213 13.9622 104.743 13.7307 104.082 13.7307C103.394 13.7307 102.852 13.9754 102.455 14.4648C102.058 14.941 101.86 15.6221 101.86 16.5083V22.5H99.3201V11.9054ZM116.394 7.62H118.894L113.021 24.6824H110.521L116.394 7.62ZM124.357 22.7381C123.272 22.7381 122.419 22.3876 121.798 21.6866C121.176 20.9723 120.865 19.9869 120.865 18.7304V11.9054H123.405V18.0955C123.405 18.9817 123.55 19.6364 123.841 20.0597C124.132 20.4697 124.588 20.6747 125.21 20.6747C125.898 20.6747 126.427 20.4499 126.797 20.0002C127.181 19.5372 127.373 18.8693 127.373 17.9963V11.9054H129.912V22.5H127.591L127.551 20.7342C127.009 22.0701 125.944 22.7381 124.357 22.7381ZM132.49 11.9054H135.03V22.5H132.49V11.9054ZM132.45 8.23504H135.089V10.4968H132.45V8.23504Z" fill="#797C7C"/>
</svg>
