<svg width="150" height="32" viewBox="0 0 150 32" fill="none" xmlns="http://www.w3.org/2000/svg">
  <path d="M35.8789 20.2525C36.0286 21.749 37.4003 24.2931 41.3162 24.2931C44.7332 24.2931 46.3793 22.1231 46.3793 20.0031C46.3793 18.0826 45.0823 16.5362 42.5134 15.9875L40.6677 15.5885C39.9444 15.4637 39.4705 15.0647 39.4705 14.4162C39.4705 13.668 40.2187 13.1192 41.1416 13.1192C42.6381 13.1192 43.1868 14.092 43.2865 14.8652L46.2296 14.1917C46.08 12.795 44.8329 10.4256 41.1166 10.4256C38.2982 10.4256 36.2281 12.371 36.2281 14.6906C36.2281 16.5113 37.3754 18.0327 39.8945 18.5814L41.6155 18.9805C42.6131 19.205 43.0122 19.6789 43.0122 20.2525C43.0122 20.9509 42.4635 21.5495 41.2912 21.5495C39.7448 21.5495 38.9966 20.6017 38.8968 19.5542L35.8789 20.2525ZM57.6529 23.894H61.02C60.9701 23.445 60.8953 22.5471 60.8953 21.5245V10.8246H57.3785V18.4068C57.3785 19.9283 56.4806 20.9758 54.9093 20.9758C53.2632 20.9758 52.5149 19.8036 52.5149 18.357V10.8246H48.9732V19.0803C48.9732 21.9236 50.769 24.2182 53.9366 24.2182C55.3084 24.2182 56.8298 23.6945 57.5531 22.4723C57.5282 23.021 57.578 23.6196 57.6529 23.894ZM68.1782 28.9322V22.622C68.8267 23.4949 70.1486 24.2182 71.9444 24.2182C75.6357 24.2182 78.1049 21.3001 78.1049 17.3344C78.1049 13.4684 75.9101 10.5503 72.094 10.5503C70.1237 10.5503 68.677 11.4232 68.0784 12.4458V10.8496H64.6614V28.9322H68.1782ZM74.6131 17.3593C74.6131 19.7038 73.1915 21.0507 71.3707 21.0507C69.5749 21.0507 68.1034 19.6789 68.1034 17.3593C68.1034 15.0397 69.55 13.6929 71.3707 13.6929C73.1665 13.6929 74.6131 15.0397 74.6131 17.3593ZM80.0753 20.3274C80.0753 22.3726 81.7714 24.2681 84.5648 24.2681C86.5102 24.2681 87.7573 23.3702 88.4058 22.3227C88.4058 22.8215 88.4557 23.5448 88.5305 23.894H91.7729C91.6981 23.445 91.6233 22.5222 91.6233 21.8238V15.3889C91.6233 12.7701 90.0769 10.4256 85.9615 10.4256C82.4697 10.4256 80.5742 12.6703 80.3746 14.7155L83.4923 15.3889C83.5921 14.2416 84.4401 13.2689 85.9865 13.2689C87.483 13.2689 88.1813 14.0421 88.1813 14.9649C88.1813 15.4139 87.9319 15.788 87.2086 15.8878L83.9911 16.3616C81.7963 16.6859 80.0753 17.9828 80.0753 20.3274ZM85.3131 21.6243C84.1657 21.6243 83.617 20.8761 83.617 20.1029C83.617 19.1052 84.3403 18.5814 85.2382 18.4567L88.1813 18.0078V18.5814C88.1564 20.9259 86.7846 21.6243 85.3131 21.6243ZM98.582 23.894V22.2977C99.2803 23.4201 100.652 24.2182 102.448 24.2182C106.164 24.2182 108.608 21.2751 108.608 17.3094C108.608 13.4435 106.414 10.4754 102.598 10.4754C100.652 10.4754 99.2304 11.3235 98.6568 12.2463V4.66406H95.1899V23.8691H98.582V23.894ZM105.092 17.3344C105.092 19.7288 103.67 21.0507 101.849 21.0507C100.078 21.0507 98.582 19.7038 98.582 17.3344C98.582 14.94 100.078 13.643 101.849 13.643C103.645 13.643 105.092 14.94 105.092 17.3344ZM110.604 20.3274C110.604 22.3726 112.3 24.2681 115.093 24.2681C117.039 24.2681 118.286 23.3702 118.934 22.3227C118.934 22.8215 118.984 23.5448 119.059 23.894H122.301C122.227 23.445 122.152 22.5222 122.152 21.8238V15.3889C122.152 12.7701 120.605 10.4256 116.49 10.4256C112.998 10.4256 111.103 12.6703 110.903 14.7155L114.021 15.3889C114.121 14.2416 114.969 13.2689 116.515 13.2689C118.011 13.2689 118.71 14.0421 118.71 14.9649C118.71 15.4139 118.46 15.788 117.737 15.8878L114.52 16.3616C112.325 16.6859 110.604 17.9828 110.604 20.3274ZM115.817 21.6243C114.669 21.6243 114.121 20.8761 114.121 20.1029C114.121 19.1052 114.844 18.5814 115.742 18.4567L118.685 18.0078V18.5814C118.685 20.9259 117.313 21.6243 115.817 21.6243ZM124.571 20.2525C124.721 21.749 126.092 24.2931 130.008 24.2931C133.425 24.2931 135.071 22.1231 135.071 20.0031C135.071 18.0826 133.774 16.5362 131.205 15.9875L129.36 15.5885C128.637 15.4637 128.163 15.0647 128.163 14.4162C128.163 13.668 128.911 13.1192 129.834 13.1192C131.33 13.1192 131.879 14.092 131.979 14.8652L134.922 14.1917C134.772 12.795 133.525 10.4256 129.809 10.4256C126.99 10.4256 124.92 12.371 124.92 14.6906C124.92 16.5113 126.068 18.0327 128.587 18.5814L130.308 18.9805C131.305 19.205 131.704 19.6789 131.704 20.2525C131.704 20.9509 131.156 21.5495 129.983 21.5495C128.437 21.5495 127.689 20.6017 127.589 19.5542L124.571 20.2525ZM140.434 15.8628C140.509 14.6656 141.531 13.2938 143.352 13.2938C145.372 13.2938 146.22 14.5659 146.27 15.8628H140.434ZM146.619 19.2798C146.195 20.4521 145.297 21.2751 143.651 21.2751C141.905 21.2751 140.434 20.0281 140.359 18.3071H149.687C149.687 18.2572 149.737 17.7334 149.737 17.2097C149.737 13.0195 147.318 10.4505 143.302 10.4505C139.96 10.4505 136.892 13.1691 136.892 17.3344C136.892 21.749 140.035 24.318 143.626 24.318C146.844 24.318 148.914 22.4224 149.562 20.1777L146.619 19.2798Z" fill="#797C7C"/>
  <path d="M1.48657 19.5292C0.713382 19.5292 0.0898438 18.9057 0.0898438 18.1325C0.0898438 17.8332 0.18961 17.5339 0.364201 17.3094L0.887973 16.5612L12.9846 0.224472C13.0844 0.0997647 13.234 0 13.4086 0C13.7079 0 13.9324 0.224475 13.9324 0.523774V0.573652V19.5043H1.48657V19.5292Z" fill="#797C7C"/>
  <path d="M26.4263 12.4707C27.1995 12.4707 27.823 13.0942 27.823 13.8674C27.823 14.1667 27.7233 14.466 27.5487 14.6905L27.0249 15.4387L14.9282 31.7755C14.8285 31.9002 14.6788 31.9999 14.5042 31.9999C14.2049 31.9999 13.9805 31.7755 13.9805 31.4762V31.4263V12.4707H26.4263Z" fill="url(#paint0_linear_180_13796)"/>
  <path d="M26.4263 12.4707C27.1995 12.4707 27.823 13.0942 27.823 13.8674C27.823 14.1667 27.7233 14.466 27.5487 14.6905L27.0249 15.4387L14.9282 31.7755C14.8285 31.9002 14.6788 31.9999 14.5042 31.9999C14.2049 31.9999 13.9805 31.7755 13.9805 31.4762V31.4263V12.4707H26.4263Z" fill="url(#paint1_linear_180_13796)" fill-opacity="0.2"/>
  <defs>
    <linearGradient id="paint0_linear_180_13796" x1="12.8801" y1="19.2404" x2="23.2102" y2="23.2713" gradientUnits="userSpaceOnUse">
      <stop stop-color="#565858"/>
      <stop offset="1" stop-color="#797C7C"/>
    </linearGradient>
    <linearGradient id="paint1_linear_180_13796" x1="12.6279" y1="8.09217" x2="17.7846" y2="17.1238" gradientUnits="userSpaceOnUse">
      <stop/>
      <stop offset="1" stop-opacity="0"/>
    </linearGradient>
  </defs>
</svg>
