<svg width="194" height="24" viewBox="0 0 194 24" fill="none" xmlns="http://www.w3.org/2000/svg">
  <path fill-rule="evenodd" clip-rule="evenodd" d="M60.0817 10.1107H56.5931V16.8618C56.5931 18.6706 57.7883 18.6383 60.0817 18.5414V21.2871C55.398 21.8362 53.5568 20.5441 53.5568 16.8941V10.143H50.9727V7.20361H53.5568V3.42434L56.5931 2.51989V7.20361H60.0817V10.1107ZM73.3899 7.17131H76.4262V21.2548H73.3899V19.2198C72.3239 20.7056 70.6443 21.6101 68.4478 21.6101C64.6039 21.6101 61.4383 18.3799 61.4383 14.213C61.4383 10.0138 64.6362 6.81599 68.4478 6.81599C70.6443 6.81599 72.3239 7.72043 73.3899 9.174V7.17131ZM68.9323 18.7352C71.4841 18.7352 73.3899 16.8618 73.3899 14.213C73.3899 11.5966 71.4841 9.69082 68.9323 9.69082C66.4128 9.69082 64.4747 11.5643 64.4747 14.213C64.4747 16.8618 66.4128 18.7352 68.9323 18.7352ZM81.4976 5.07171C80.4316 5.07171 79.5595 4.16727 79.5595 3.13363C79.5595 2.06768 80.4316 1.19554 81.4976 1.19554C82.5635 1.19554 83.4356 2.06768 83.4356 3.13363C83.4679 4.16727 82.5635 5.07171 81.4976 5.07171ZM79.9794 21.2548V7.17131H83.0157V21.2548H79.9794ZM86.5366 21.2548V0.678711H89.5729V21.2548H86.5366ZM109.341 7.17131H112.539L108.114 21.2548H105.142L102.203 11.7581L99.2311 21.2548H96.2593L91.834 7.17131H95.0319L97.7775 16.8941L100.749 7.17131H103.656L106.596 16.8941L109.341 7.17131ZM116.351 5.07171C115.285 5.07171 114.413 4.16727 114.413 3.13363C114.413 2.06768 115.285 1.19554 116.351 1.19554C117.417 1.19554 118.289 2.06768 118.289 3.13363C118.289 4.16727 117.417 5.07171 116.351 5.07171ZM114.8 21.2548V7.17131H117.837V21.2548H114.8ZM128.787 6.81599C131.952 6.81599 134.214 8.94789 134.214 12.6303V21.2871H131.177V12.921C131.177 10.7891 129.95 9.65852 128.012 9.65852C126.009 9.65852 124.426 10.8537 124.426 13.7285V21.2871H121.39V7.20361H124.426V9.01249C125.363 7.52662 126.881 6.81599 128.787 6.81599ZM148.62 1.55085H151.656V21.2871H148.62V19.2521C147.554 20.7379 145.874 21.6424 143.678 21.6424C139.834 21.6424 136.668 18.4122 136.668 14.2453C136.668 10.0461 139.866 6.8483 143.678 6.8483C145.874 6.8483 147.554 7.75273 148.62 9.2063V1.55085ZM144.195 18.7352C146.747 18.7352 148.652 16.8618 148.652 14.213C148.652 11.5966 146.747 9.69082 144.195 9.69082C141.675 9.69082 139.737 11.5643 139.737 14.213C139.737 16.8618 141.643 18.7352 144.195 18.7352ZM161.864 21.6424C157.6 21.6424 154.434 18.4122 154.434 14.2453C154.434 10.0461 157.632 6.8483 161.864 6.8483C164.642 6.8483 167.032 8.26956 168.162 10.4984L165.546 12.0165C164.932 10.6922 163.543 9.85233 161.864 9.85233C159.376 9.85233 157.503 11.7258 157.503 14.2776C157.503 16.8295 159.376 18.7029 161.864 18.7029C163.543 18.7029 164.932 17.8308 165.611 16.5387L168.227 18.0246C167.032 20.1888 164.642 21.6424 161.864 21.6424ZM173.234 11.0798C173.234 13.6316 180.825 12.0811 180.825 17.314C180.825 20.1242 178.37 21.6424 175.333 21.6424C172.523 21.6424 170.488 20.3826 169.584 18.3476L172.2 16.8295C172.652 18.0892 173.783 18.8644 175.333 18.8644C176.69 18.8644 177.724 18.4122 177.724 17.2817C177.724 14.7622 170.133 16.1834 170.133 11.1444C170.133 8.49567 172.426 6.8483 175.301 6.8483C177.627 6.8483 179.533 7.91424 180.502 9.78772L177.95 11.209C177.433 10.1107 176.464 9.59392 175.301 9.59392C174.203 9.56162 173.234 10.0461 173.234 11.0798ZM186.219 11.0798C186.219 13.6316 193.81 12.0811 193.81 17.314C193.81 20.1242 191.355 21.6424 188.319 21.6424C185.508 21.6424 183.473 20.3826 182.569 18.3476L185.185 16.8295C185.638 18.0892 186.768 18.8644 188.319 18.8644C189.675 18.8644 190.709 18.4122 190.709 17.2817C190.709 14.7622 183.118 16.1834 183.118 11.1444C183.118 8.49567 185.411 6.8483 188.286 6.8483C190.612 6.8483 192.518 7.91424 193.487 9.78772L190.935 11.209C190.418 10.1107 189.449 9.59392 188.286 9.59392C187.188 9.56162 186.219 10.0461 186.219 11.0798Z" fill="#797C7C"/>
  <path fill-rule="evenodd" clip-rule="evenodd" d="M20.0269 0C14.6972 0 11.3378 2.68102 10.0135 8.01076C12.0162 5.32974 14.3419 4.3284 17.0229 5.00673C18.5411 5.39435 19.6393 6.4926 20.8345 7.72005C22.8049 9.72274 25.066 12.0162 30.0404 12.0162C35.3701 12.0162 38.7295 9.33513 40.0538 4.00538C38.0512 6.68641 35.7254 7.68776 33.0444 7.00943C31.5263 6.62181 30.428 5.52355 29.2328 4.29609C27.2625 2.2934 25.0014 0 20.0269 0ZM10.0135 11.9839C4.68372 11.9839 1.32436 14.6649 0 19.9946C2.00269 17.3136 4.3284 16.3123 7.00942 16.9906C8.52759 17.3782 9.62584 18.4764 10.821 19.7039C12.7914 21.7066 15.0525 24 20.0269 24C25.3567 24 28.716 21.319 30.0404 15.9892C28.0377 18.6703 25.712 19.6716 23.031 18.9933C21.5128 18.6057 20.4145 17.5074 19.2194 16.2799C17.249 14.3096 14.9879 11.9839 10.0135 11.9839Z" fill="#797C7C"/>
</svg>
